HIERARCHY
ROOT Hips
{
	OFFSET 0.00000 0.00000 0.00000
	CHANNELS 6 Xposition Yposition Zposition Zrotation Yrotation Xrotation 
	JOINT LHipJoint
	{
		OFFSET 0 0 0
		CHANNELS 3 Zrotation Yrotation Xrotation
		JOINT LeftHip
		{
			OFFSET 1.30186 -1.90722 0.65024
			CHANNELS 3 Zrotation Yrotation Xrotation
			JOINT LeftKnee
			{
				OFFSET 2.56413 -7.04489 0.00000
				CHANNELS 3 Zrotation Yrotation Xrotation
				JOINT LeftAnkle
				{
					OFFSET 2.79321 -7.67428 0.00000
					CHANNELS 3 Zrotation Yrotation Xrotation
					JOINT LeftToe
					{
						OFFSET 0.15723 -0.43198 2.08537
						CHANNELS 3 Zrotation Yrotation Xrotation
						End Site
						{
							OFFSET 0.00000 -0.00000 1.07411
						}
					}
				}
			}
		}
	}
	JOINT RHipJoint
	{
		OFFSET 0 0 0
		CHANNELS 3 Zrotation Yrotation Xrotation
		JOINT RightHip
		{
			OFFSET -1.28627 -1.90723 0.65024
			CHANNELS 3 Zrotation Yrotation Xrotation
			JOINT RightKnee
			{
				OFFSET -2.56567 -7.04913 0.00000
				CHANNELS 3 Zrotation Yrotation Xrotation
				JOINT RightAnkle
				{
					OFFSET -2.75597 -7.57198 0.00000
					CHANNELS 3 Zrotation Yrotation Xrotation
					JOINT RightToe
					{
						OFFSET -0.17500 -0.48081 2.22901
						CHANNELS 3 Zrotation Yrotation Xrotation
						End Site
						{
							OFFSET -0.00000 -0.00000 1.14762
						}
					}
				}
			}
		}
	}
	JOINT lowerback
	{
		OFFSET 0 0 0
		CHANNELS 3 Zrotation Yrotation Xrotation
		JOINT Chest
		{
			OFFSET -0.04522 2.07467 -0.16566
			CHANNELS 3 Zrotation Yrotation Xrotation
			JOINT Chest2
			{
				OFFSET -0.01178 2.08825 -0.05393
				CHANNELS 3 Zrotation Yrotation Xrotation
				JOINT lowerneck
				{
					OFFSET 0 0 0
					CHANNELS 3 Zrotation Yrotation Xrotation
					JOINT Neck
					{
						OFFSET -0.05182 1.80489 0.16014
						CHANNELS 3 Zrotation Yrotation Xrotation
						JOINT Head
						{
							OFFSET 0.14739 1.78840 -0.33342
							CHANNELS 3 Zrotation Yrotation Xrotation
							End Site
							{
								OFFSET 0.04364 1.83899 -0.13460
							}
						}
					}
				}
				JOINT LeftCollar
				{
					OFFSET 0 0 0
					CHANNELS 3 Zrotation Yrotation Xrotation
					JOINT LeftShoulder
					{
						OFFSET 3.01264 1.29090 -0.06579
CHANNELS 3 Zrotation Xrotation Yrotation
						JOINT LeftElbow
						{
OFFSET 0 -5.556800 0.000000
CHANNELS 3 Zrotation Xrotation Yrotation
							JOINT LeftWrist
							{
OFFSET 0 -3.639790 -0.000000
CHANNELS 3 Zrotation Xrotation Yrotation
								JOINT lhand
								{
									OFFSET 0 0 0
CHANNELS 3 Zrotation Xrotation Yrotation
									JOINT LFingers
									{
OFFSET 0 -0.569420 -0.000000
CHANNELS 3 Zrotation Xrotation Yrotation
										End Site
										{
OFFSET 0 -0.459080 -0.000000
										}
									}
								}
								JOINT LThumb
								{
OFFSET 0 0.000000 0.000000
CHANNELS 3 Zrotation Xrotation Yrotation
									End Site
									{
OFFSET 0 -0.466090 0.466090
									}
								}
							}
						}
					}
				}
				JOINT RightCollar
				{
					OFFSET 0 0 0
					CHANNELS 3 Zrotation Yrotation Xrotation
					JOINT RightShoulder
					{
						OFFSET -3.15796 1.37283 -0.36748
CHANNELS 3 Zrotation Xrotation Yrotation
						JOINT RightElbow
						{
OFFSET 0 -5.343390 0.000000
CHANNELS 3 Zrotation Xrotation Yrotation
							JOINT RightWrist
							{
OFFSET 0 -3.651010 -0.000000
CHANNELS 3 Zrotation Xrotation Yrotation
								JOINT rhand
								{
									OFFSET 0 0 0
CHANNELS 3 Zrotation Xrotation Yrotation
									JOINT RFingers
									{
OFFSET 0 -0.694250 -0.000000
CHANNELS 3 Zrotation Xrotation Yrotation
										End Site
										{
OFFSET 0 -0.559720 -0.000000
										}
									}
								}
								JOINT RThumb
								{
OFFSET 0 0.000000 0.000000
CHANNELS 3 Zrotation Xrotation Yrotation
									End Site
									{
OFFSET 0 -0.568270 0.568270
									}
								}
							}
						}
					}
				}
			}
		}
	}
}
MOTION
Frames: 8
Frame Time: 0.008333333333333333
19.152734 18.759084 3.915985 -177.688359 15.240391 -174.259830 0.000000 0.000000 0.000000 -0.129894 -22.159130 -24.957645 0.695383 5.330518 14.853763 -0.455631 17.579352 -20.305733 0.511664 -4.577581 -12.708757 0.000000 0.000000 0.000000 22.863985 5.498202 10.902462 -0.374231 -3.928852 10.876620 -0.179881 5.133840 -7.834017 -0.008452 -0.540086 1.484214 4.732735 2.719837 -1.950466 1.591498 3.650665 -1.410258 -0.941377 1.840976 -0.169909 -2.648320 -1.515224 -14.515252 -2.022505 -0.616862 19.013473 -0.283268 -0.524602 8.315252 0.000000 0.000000 0.000000 79.548559 -53.766449 3.911488 13.104468 -21.440108 2.491361 15.397279 9.323321 -15.840354 0.000000 0.000000 0.000000 -7.125000 0.000000 0.000000 -11.575040 46.050232 0.303045 0.000000 0.000000 0.000000 -37.917054 -53.033581 29.670329 -21.848152 -32.804840 -6.503410 4.361287 8.441950 -35.610360 0.000000 0.000000 0.000000 7.125000 0.000000 0.000000 20.082901 -3.852390 22.794757
19.148559 18.750236 3.862111 -177.552531 15.498019 -174.193795 0.000000 0.000000 0.000000 -0.115092 -21.980584 -25.048740 0.688803 5.305778 14.782881 -0.464809 17.747584 -20.497535 0.551205 -4.755917 -13.213600 0.000000 0.000000 0.000000 22.932838 5.421208 11.070970 -0.366562 -3.889213 10.765202 -0.177029 5.112574 -7.776113 -0.003200 -0.343366 0.943391 4.821061 2.730336 -1.979066 1.580868 3.661774 -1.411655 -0.999260 1.846407 -0.148880 -2.565668 -1.489256 -14.512247 -2.040469 -0.604773 18.952793 -0.301576 -0.516351 8.293401 0.000000 0.000000 0.000000 79.801606 -53.683455 4.097683 13.084153 -21.410420 2.483964 15.727472 9.512461 -15.840136 0.000000 0.000000 0.000000 -7.125000 0.000000 0.000000 -11.273177 46.091383 0.308199 0.000000 0.000000 0.000000 -38.190839 -52.903619 29.573912 -21.888833 -32.851088 -6.525464 4.200878 8.344396 -35.647958 0.000000 0.000000 0.000000 7.125000 0.000000 0.000000 20.000854 -3.896394 22.703526
19.144932 18.743159 3.806852 -177.536885 15.705899 -174.159658 0.000000 0.000000 0.000000 -0.216187 -21.919706 -25.110933 0.685638 5.293830 14.748602 -0.460649 17.858173 -20.741791 0.561908 -4.800828 -13.341400 0.000000 0.000000 0.000000 22.858697 5.258346 11.243184 -0.357637 -3.841421 10.631037 -0.173082 5.141057 -7.709155 -0.003200 -0.082076 0.225485 4.764202 2.707294 -2.037276 1.570947 3.626357 -1.398391 -0.975399 1.829446 -0.107134 -2.532314 -1.462160 -14.597945 -2.096581 -0.559755 18.993188 -0.321561 -0.499851 8.322169 0.000000 0.000000 0.000000 79.991244 -53.586058 4.306238 13.042122 -21.348867 2.468674 15.972119 9.454535 -15.492259 0.000000 0.000000 0.000000 -7.125000 0.000000 0.000000 -10.954495 45.769572 0.215531 0.000000 0.000000 0.000000 -38.119898 -52.984766 29.370619 -21.823155 -32.776414 -6.489941 4.079229 8.492394 -35.824296 0.000000 0.000000 0.000000 7.125000 0.000000 0.000000 19.938589 -4.069923 22.680377
19.141305 18.736083 3.751593 -177.521239 15.913778 -174.125521 0.000000 0.000000 0.000000 -0.317282 -21.858829 -25.173126 0.682473 5.281882 14.714323 -0.456488 17.968763 -20.986048 0.572612 -4.845740 -13.469200 0.000000 0.000000 0.000000 22.784556 5.095485 11.415397 -0.348711 -3.793629 10.496872 -0.169135 5.169540 -7.642197 -0.003200 0.179213 -0.492421 4.707343 2.684252 -2.095487 1.561026 3.590940 -1.385127 -0.951539 1.812484 -0.065387 -2.498959 -1.435063 -14.683642 -2.152694 -0.514737 19.033584 -0.341545 -0.483352 8.350936 0.000000 0.000000 0.000000 80.180881 -53.488661 4.514793 13.000091 -21.287314 2.453383 16.216767 9.396609 -15.144383 0.000000 0.000000 0.000000 -7.125000 0.000000 0.000000 -10.635813 45.447760 0.122864 0.000000 0.000000 0.000000 -38.048957 -53.065912 29.167327 -21.757477 -32.701739 -6.454417 3.957581 8.640392 -36.000634 0.000000 0.000000 0.000000 7.125000 0.000000 0.000000 19.876325 -4.243452 22.657228
19.137568 18.729027 3.696254 -177.498080 16.124793 -174.090583 0.000000 0.000000 0.000000 -0.397843 -21.836676 -25.216698 0.679649 5.271186 14.683660 -0.447199 18.072911 -21.272245 0.567919 -4.823629 -13.406793 0.000000 0.000000 0.000000 22.711988 4.930410 11.580659 -0.340267 -3.748121 10.369148 -0.164397 5.226962 -7.568427 -0.003571 0.383988 -1.055068 4.655962 2.655680 -2.143631 1.559099 3.549654 -1.379537 -0.923522 1.792457 -0.037614 -2.483093 -1.404672 -14.764823 -2.208836 -0.459111 19.087922 -0.357362 -0.462705 8.383820 0.000000 0.000000 0.000000 80.328649 -53.370590 4.719622 12.957970 -21.225591 2.438093 16.374720 9.375244 -14.873575 0.000000 0.000000 0.000000 -7.125000 0.000000 0.000000 -10.417628 45.193231 0.050220 0.000000 0.000000 0.000000 -38.030604 -53.119813 29.053644 -21.716130 -32.654741 -6.432045 3.911739 8.692600 -36.103330 0.000000 0.000000 0.000000 7.125000 0.000000 0.000000 19.852765 -4.343118 22.659752
19.133550 18.722022 3.640710 -177.455765 16.343802 -174.053601 0.000000 0.000000 0.000000 -0.426042 -21.913271 -25.212787 0.677693 5.263683 14.662218 -0.424833 18.160636 -21.665388 0.523968 -4.630614 -12.859358 0.000000 0.000000 0.000000 22.643430 4.759690 11.728195 -0.333048 -3.708437 10.257847 -0.157641 5.358175 -7.477289 -0.004886 0.444653 -1.221806 4.618554 2.613009 -2.166104 1.577554 3.493399 -1.393511 -0.884905 1.764614 -0.045472 -2.511825 -1.365877 -14.834483 -2.265056 -0.376436 19.177816 -0.362554 -0.431484 8.427203 0.000000 0.000000 0.000000 80.369649 -53.199799 4.914949 12.915619 -21.163433 2.422802 16.311603 9.447109 -14.799292 0.000000 0.000000 0.000000 -7.125000 0.000000 0.000000 -10.455712 45.110271 0.028635 0.000000 0.000000 0.000000 -38.146350 -53.104238 29.168465 -21.736825 -32.678317 -6.443211 4.059204 8.500544 -36.018237 0.000000 0.000000 0.000000 7.125000 0.000000 0.000000 19.927902 -4.254434 22.727741
19.129532 18.715016 3.585167 -177.413449 16.562812 -174.016619 0.000000 0.000000 0.000000 -0.454240 -21.989865 -25.208875 0.675738 5.256180 14.640775 -0.402466 18.248361 -22.058531 0.480017 -4.437598 -12.311923 0.000000 0.000000 0.000000 22.574871 4.588970 11.875730 -0.325830 -3.668753 10.146547 -0.150884 5.489389 -7.386150 -0.006202 0.505317 -1.388543 4.581146 2.570338 -2.188577 1.596009 3.437144 -1.407486 -0.846287 1.736771 -0.053331 -2.540557 -1.327081 -14.904144 -2.321275 -0.293761 19.267710 -0.367746 -0.400263 8.470585 0.000000 0.000000 0.000000 80.410649 -53.029008 5.110276 12.873268 -21.101276 2.407512 16.248485 9.518974 -14.725009 0.000000 0.000000 0.000000 -7.125000 0.000000 0.000000 -10.493796 45.027312 0.007051 0.000000 0.000000 0.000000 -38.262095 -53.088663 29.283286 -21.757521 -32.701893 -6.454376 4.206668 8.308489 -35.933143 0.000000 0.000000 0.000000 7.125000 0.000000 0.000000 20.003039 -4.165749 22.795731
19.126231 18.707026 3.529556 -177.300683 16.823491 -173.970289 0.000000 0.000000 0.000000 -0.435193 -21.972336 -25.198920 0.674333 5.250864 14.625544 -0.392904 18.369791 -22.368653 0.448152 -4.293965 -11.905240 0.000000 0.000000 0.000000 22.591288 4.497799 12.056538 -0.319629 -3.634161 10.049604 -0.145363 5.577397 -7.306431 -0.009321 0.605563 -1.664145 4.604422 2.551323 -2.210400 1.627553 3.411424 -1.407154 -0.826535 1.724721 -0.042759 -2.570024 -1.297886 -14.949597 -2.352619 -0.235426 19.305317 -0.367044 -0.378508 8.491830 0.000000 0.000000 0.000000 80.499729 -52.875746 5.274451 12.836075 -21.046614 2.394125 16.123230 9.541474 -14.722378 0.000000 0.000000 0.000000 -7.125000 0.000000 0.000000 -10.607072 45.009577 0.002829 0.000000 0.000000 0.000000 -38.369961 -53.086043 29.260744 -21.757081 -32.701378 -6.454140 4.493564 8.350239 -35.845245 0.000000 0.000000 0.000000 7.125000 0.000000 0.000000 20.149294 -4.067932 22.952835
